<svg width="51" height="50" viewBox="0 0 51 50" fill="none" xmlns="http://www.w3.org/2000/svg">
<path d="M48.9985 36.4398V43.3647C49.0012 44.0076 48.8664 44.6439 48.6027 45.2329C48.3391 45.8219 47.9524 46.3507 47.4674 46.7853C46.9824 47.2199 46.4099 47.5507 45.7864 47.7567C45.163 47.9626 44.5024 48.0391 43.8469 47.9813C36.5751 47.2095 29.59 44.7823 23.4529 40.8948C17.7432 37.3508 12.9023 32.6223 9.27404 27.0451C5.28027 21.0233 2.79487 14.1672 2.01918 7.03228C1.96013 6.39397 2.03779 5.75063 2.24723 5.14324C2.45666 4.53585 2.79328 3.97771 3.23565 3.50435C3.67802 3.031 4.21645 2.6528 4.81665 2.39384C5.41686 2.13488 6.06569 2.00083 6.72184 2.00022H13.8113C14.9581 1.9892 16.07 2.38589 16.9395 3.11635C17.8091 3.84682 18.3771 4.86122 18.5376 5.97047C18.8368 8.18658 19.3917 10.3625 20.1918 12.4568C20.5097 13.2829 20.5785 14.1808 20.3901 15.0441C20.2016 15.9073 19.7637 16.6996 19.1284 17.3272L16.1272 20.2588C19.4912 26.0377 24.3898 30.8225 30.3061 34.1085L33.3072 31.1769C33.9498 30.5563 34.7609 30.1286 35.6447 29.9445C36.5284 29.7604 37.4477 29.8277 38.2935 30.1382C40.4375 30.9197 42.6652 31.4617 44.9339 31.754C46.0819 31.9122 47.1302 32.477 47.8797 33.341C48.6291 34.2049 49.0273 35.3078 48.9985 36.4398Z" stroke="#1C3D5C" stroke-width="2.5" stroke-linecap="round" stroke-linejoin="round"/>
</svg>
