<svg width="80" height="80" viewBox="0 0 80 80" fill="none" xmlns="http://www.w3.org/2000/svg">
<path d="M79.1079 0.610728C79.5254 0.967581 79.8164 1.45011 79.9374 1.98623C80.0584 2.52235 80.003 3.08329 79.7794 3.58525C71.9971 21.0555 55.6545 45.198 43.6913 57.7786C40.3381 61.298 36.2026 63.975 31.6212 65.5919C31.5297 66.748 31.316 68.3321 30.8074 70.0129C29.785 73.3694 27.4148 77.546 22.1198 78.8753C16.9918 80.0981 11.6775 80.3263 6.46383 79.5477C5.49436 79.3943 4.53852 79.1644 3.60526 78.8601C2.74185 78.597 1.93711 78.1698 1.23499 77.602C0.771985 77.2077 0.415209 76.7033 0.197367 76.1351C-0.0726287 75.406 -0.0653871 74.6029 0.217713 73.8788C0.700922 72.6309 1.82502 71.9433 2.56255 71.5766C4.56659 70.5732 5.74155 69.2693 6.97247 67.3694C7.45568 66.636 7.90837 65.8567 8.43227 64.9654L9.02738 63.9569C9.79542 62.6581 10.6855 61.2065 11.8046 59.6377C14.4902 55.8737 17.9133 54.9263 20.6854 55.0741C21.3263 55.1097 21.9214 55.2014 22.4555 55.3185C22.7709 54.4425 23.1778 53.3831 23.6661 52.2218C24.9936 49.069 27.0129 44.9943 29.7036 41.6836C40.7717 28.0843 61.1377 10.0742 76.0764 0.406994C76.5364 0.109743 77.0798 -0.0309869 77.6259 0.00571807C78.1721 0.042423 78.6918 0.254603 79.1079 0.610728ZM22.5471 60.6717C21.8721 60.3777 21.1506 60.2052 20.4158 60.1623C19.1646 60.0961 17.5013 60.417 15.9449 62.602C14.9429 64.0027 14.1392 65.3117 13.4017 66.5596L12.8676 67.4611C12.3285 68.383 11.7842 69.3049 11.24 70.1504C10.2099 71.8217 8.90254 73.3048 7.37429 74.5358C10.8839 75.1063 16.2043 75.1012 20.8889 73.9246C23.7322 73.2166 25.1767 71.0265 25.9397 68.5256C26.308 67.2832 26.5232 66.0003 26.5806 64.7056L22.5471 60.6717ZM29.8715 60.8041C30.4819 60.6004 31.2804 60.2948 32.2011 59.872C35.1312 58.5108 37.7797 56.6102 40.0087 54.2693C49.6729 44.103 62.45 25.8993 70.7917 10.3085C57.6179 20.1234 42.4807 34.0436 33.6507 44.9026C31.4025 47.6683 29.607 51.2337 28.3507 54.2031C27.7352 55.67 27.2622 56.9535 26.9519 57.8703L29.8715 60.8041ZM4.57677 76.2879L4.61237 76.2624C4.60144 76.2708 4.58947 76.2827 4.57677 76.2879Z" fill="black"/>
</svg>
