<svg width="75" height="75" viewBox="0 0 75 75" fill="none" xmlns="http://www.w3.org/2000/svg">
<path d="M25.4814 61.7975H23.7521C9.91736 61.7975 3 58.3389 3 41.0455V23.7521C3 9.91736 9.91736 3 23.7521 3H51.4215C65.2562 3 72.1736 9.91736 72.1736 23.7521V41.0455C72.1736 54.8802 65.2562 61.7975 51.4215 61.7975H49.6922C48.62 61.7975 47.5824 62.3163 46.9252 63.181L41.7372 70.0984C39.4545 73.142 35.7191 73.142 33.4364 70.0984L28.2484 63.181C27.695 62.4201 26.4153 61.7975 25.4814 61.7975Z" fill="white" stroke="black" stroke-width="5.18802" stroke-miterlimit="10" stroke-linecap="round" stroke-linejoin="round"/>
<path d="M51.4097 34.127H51.4404Z" fill="white"/>
<path d="M51.4097 34.127H51.4404" stroke="black" stroke-width="6.91736" stroke-linecap="round" stroke-linejoin="round"/>
<path d="M37.5713 34.127H37.6024Z" fill="white"/>
<path d="M37.5713 34.127H37.6024" stroke="black" stroke-width="6.91736" stroke-linecap="round" stroke-linejoin="round"/>
<path d="M23.7334 34.127H23.7645Z" fill="white"/>
<path d="M23.7334 34.127H23.7645" stroke="black" stroke-width="6.91736" stroke-linecap="round" stroke-linejoin="round"/>
</svg>
