<svg width="75" height="73" viewBox="0 0 75 73" fill="none" xmlns="http://www.w3.org/2000/svg">
<path d="M21.3374 59.4569L32.4836 68.0861C33.9218 69.5243 37.1577 70.2434 39.315 70.2434H52.978C57.2926 70.2434 61.9668 67.0075 63.0454 62.6929L71.6746 36.4456C73.4724 31.4119 70.2364 27.0972 64.8432 27.0972H50.4611C48.3038 27.0972 46.5061 25.2994 46.8656 22.7826L48.6634 11.2769C49.3825 8.04097 47.2252 4.44546 43.9892 3.36681C41.1128 2.28816 37.5173 3.72636 36.0791 5.88367L21.3374 27.8163" fill="white"/>
<path d="M21.3374 59.4569L32.4836 68.0861C33.9218 69.5243 37.1577 70.2434 39.315 70.2434H52.978C57.2926 70.2434 61.9668 67.0075 63.0454 62.6929L71.6746 36.4456C73.4724 31.4119 70.2364 27.0972 64.8432 27.0972H50.4611C48.3038 27.0972 46.5061 25.2994 46.8656 22.7826L48.6634 11.2769C49.3825 8.04097 47.2252 4.44546 43.9892 3.36681C41.1128 2.28816 37.5173 3.72636 36.0791 5.88367L21.3374 27.8163" stroke="black" stroke-width="5.39327" stroke-miterlimit="10"/>
<path d="M3 59.4561V24.2201C3 19.1864 5.15731 17.3887 10.191 17.3887H13.7865C18.8203 17.3887 20.9776 19.1864 20.9776 24.2201V59.4561C20.9776 64.4898 18.8203 66.2876 13.7865 66.2876H10.191C5.15731 66.2876 3 64.4898 3 59.4561Z" fill="white" stroke="black" stroke-width="5.39327" stroke-linecap="round" stroke-linejoin="round"/>
</svg>
