<svg width="103" height="103" viewBox="0 0 103 103" fill="none" xmlns="http://www.w3.org/2000/svg">
<path d="M87.0526 99.0594C91.0314 99.0594 94.2571 95.8337 94.2571 91.8549C94.2571 87.8761 91.0314 84.6504 87.0526 84.6504C83.0738 84.6504 79.8481 87.8761 79.8481 91.8549C79.8481 95.8337 83.0738 99.0594 87.0526 99.0594Z" stroke="white" stroke-width="6" stroke-linecap="round" stroke-linejoin="round"/>
<path d="M39.0228 99.0594C43.0016 99.0594 46.2273 95.8337 46.2273 91.8549C46.2273 87.8761 43.0016 84.6504 39.0228 84.6504C35.0439 84.6504 31.8184 87.8761 31.8184 91.8549C31.8184 95.8337 35.0439 99.0594 39.0228 99.0594Z" stroke="white" stroke-width="6" stroke-linecap="round" stroke-linejoin="round"/>
<path d="M17.409 12.606H99.0599L89.4539 65.4389H27.015L17.409 12.606ZM17.409 12.606C16.6085 9.40397 12.606 3 3 3" stroke="white" stroke-width="6" stroke-linecap="round" stroke-linejoin="round"/>
<path d="M89.4523 65.4395H27.0134H18.5158C9.94574 65.4395 5.3999 69.1916 5.3999 75.0454C5.3999 80.8993 9.94574 84.6514 18.5158 84.6514H87.0508" stroke="white" stroke-width="6" stroke-linecap="round" stroke-linejoin="round"/>
</svg>
