<svg width="128" height="128" viewBox="0 0 128 128" fill="none" xmlns="http://www.w3.org/2000/svg">
<rect width="128" height="128" rx="5" transform="matrix(-1 0 0 1 128 0)" fill="#4495E1"/>
<path d="M81.7779 53.334C80.8349 53.334 79.9306 53.6551 79.2638 54.2266C78.597 54.7982 78.2224 55.5733 78.2224 56.3816V92.953C78.2224 93.7613 78.597 94.5365 79.2638 95.108C79.9306 95.6796 80.8349 96.0007 81.7779 96.0007C82.7209 96.0007 83.6253 95.6796 84.2921 95.108C84.9589 94.5365 85.3335 93.7613 85.3335 92.953V56.3816C85.3335 55.5733 84.9589 54.7982 84.2921 54.2266C83.6253 53.6551 82.7209 53.334 81.7779 53.334ZM64.0002 53.334C63.0572 53.334 62.1528 53.6551 61.486 54.2266C60.8192 54.7982 60.4446 55.5733 60.4446 56.3816V92.953C60.4446 93.7613 60.8192 94.5365 61.486 95.108C62.1528 95.6796 63.0572 96.0007 64.0002 96.0007C64.9432 96.0007 65.8475 95.6796 66.5143 95.108C67.1811 94.5365 67.5557 93.7613 67.5557 92.953V56.3816C67.5557 55.5733 67.1811 54.7982 66.5143 54.2266C65.8475 53.6551 64.9432 53.334 64.0002 53.334ZM42.6668 56.3816C42.6668 55.5733 43.0414 54.7982 43.7082 54.2266C44.375 53.6551 45.2794 53.334 46.2224 53.334C47.1654 53.334 48.0697 53.6551 48.7365 54.2266C49.4033 54.7982 49.7779 55.5733 49.7779 56.3816V92.953C49.7779 93.7613 49.4033 94.5365 48.7365 95.108C48.0697 95.6796 47.1654 96.0007 46.2224 96.0007C45.2794 96.0007 44.375 95.6796 43.7082 95.108C43.0414 94.5365 42.6668 93.7613 42.6668 92.953V56.3816Z" fill="white"/>
<path fill-rule="evenodd" clip-rule="evenodd" d="M21.3332 36.2667C21.3332 38.0584 22.0247 39.7767 23.2558 41.0436C24.4868 42.3105 26.1564 43.0222 27.8973 43.0222H31.1793V103.822C31.1793 107.406 32.5625 110.842 35.0245 113.376C37.4865 115.91 40.8257 117.333 44.3075 117.333H83.6921C87.174 117.333 90.5132 115.91 92.9752 113.376C95.4372 110.842 96.8203 107.406 96.8203 103.822V43.0222H100.102C101.843 43.0222 103.513 42.3105 104.744 41.0436C105.975 39.7767 106.667 38.0584 106.667 36.2667V29.5111C106.667 27.7194 105.975 26.0011 104.744 24.7342C103.513 23.4673 101.843 22.7556 100.102 22.7556H77.128C77.128 20.9639 76.4365 19.2456 75.2055 17.9787C73.9745 16.7117 72.3048 16 70.5639 16H57.4357C55.6948 16 54.0252 16.7117 52.7942 17.9787C51.5632 19.2456 50.8716 20.9639 50.8716 22.7556H27.8973C26.1564 22.7556 24.4868 23.4673 23.2558 24.7342C22.0247 26.0011 21.3332 27.7194 21.3332 29.5111V36.2667ZM89.4817 43.0222L90.2562 43.4208V103.822C90.2562 105.614 89.5647 107.332 88.3337 108.599C87.1027 109.866 85.4331 110.578 83.6921 110.578H44.3075C42.5666 110.578 40.897 109.866 39.666 108.599C38.435 107.332 37.7434 105.614 37.7434 103.822V43.4208L38.518 43.0222H89.4817ZM100.102 36.2667V29.5111H27.8973V36.2667H100.102Z" fill="white"/>
</svg>
