<svg width="49" height="54" viewBox="0 0 49 54" fill="none" xmlns="http://www.w3.org/2000/svg">
<path d="M14.4418 11.3022C13.412 11.3022 12.5581 10.4482 12.5581 9.41849V1.8837C12.5581 0.853943 13.412 0 14.4418 0C15.4716 0 16.3255 0.853943 16.3255 1.8837V9.41849C16.3255 10.4482 15.4716 11.3022 14.4418 11.3022Z" fill="#1C3D5C"/>
<path d="M34.5346 11.3022C33.5048 11.3022 32.6509 10.4482 32.6509 9.41849V1.8837C32.6509 0.853943 33.5048 0 34.5346 0C35.5643 0 36.4183 0.853943 36.4183 1.8837V9.41849C36.4183 10.4482 35.5643 11.3022 34.5346 11.3022Z" fill="#1C3D5C"/>
<path d="M15.6976 33.2768C15.3711 33.2768 15.0446 33.2015 14.7432 33.0759C14.4167 32.9503 14.1656 32.7745 13.9144 32.5485C13.4623 32.0713 13.186 31.4434 13.186 30.7652C13.186 30.4387 13.2614 30.1122 13.387 29.8108C13.5125 29.5094 13.6884 29.2331 13.9144 28.982C14.1656 28.7559 14.4167 28.5801 14.7432 28.4546C15.6474 28.0778 16.7776 28.2787 17.4809 28.982C17.933 29.4592 18.2092 30.1122 18.2092 30.7652C18.2092 30.9159 18.1841 31.0917 18.159 31.2675C18.1339 31.4182 18.0836 31.5689 18.0083 31.7196C17.9581 31.8703 17.8827 32.021 17.7823 32.1717C17.7069 32.2973 17.5813 32.4229 17.4809 32.5485C17.0037 33.0005 16.3506 33.2768 15.6976 33.2768Z" fill="#1C3D5C"/>
<path d="M24.4877 33.2802C24.1612 33.2802 23.8347 33.2048 23.5333 33.0792C23.2068 32.9537 22.9556 32.7778 22.7044 32.5518C22.2523 32.0746 21.9761 31.4467 21.9761 30.7686C21.9761 30.4421 22.0514 30.1156 22.177 29.8142C22.3026 29.5128 22.4784 29.2365 22.7044 28.9853C22.9556 28.7593 23.2068 28.5835 23.5333 28.4579C24.4374 28.056 25.5677 28.2821 26.2709 28.9853C26.723 29.4625 26.9993 30.1156 26.9993 30.7686C26.9993 30.9193 26.9742 31.0951 26.949 31.2709C26.9239 31.4216 26.8737 31.5723 26.7983 31.723C26.7481 31.8737 26.6728 32.0244 26.5723 32.1751C26.4969 32.3006 26.3714 32.4262 26.2709 32.5518C25.7937 33.0039 25.1407 33.2802 24.4877 33.2802Z" fill="#1C3D5C"/>
<path d="M33.2787 33.2802C32.9522 33.2802 32.6257 33.2048 32.3243 33.0792C31.9978 32.9537 31.7466 32.7778 31.4955 32.5518C31.395 32.4262 31.2945 32.3006 31.1941 32.1751C31.0936 32.0244 31.0182 31.8737 30.968 31.723C30.8927 31.5723 30.8424 31.4216 30.8173 31.2709C30.7922 31.0951 30.7671 30.9193 30.7671 30.7686C30.7671 30.1156 31.0434 29.4625 31.4955 28.9853C31.7466 28.7593 31.9978 28.5835 32.3243 28.4579C33.2536 28.056 34.3587 28.2821 35.0619 28.9853C35.514 29.4625 35.7903 30.1156 35.7903 30.7686C35.7903 30.9193 35.7652 31.0951 35.7401 31.2709C35.7149 31.4216 35.6647 31.5723 35.5894 31.723C35.5391 31.8737 35.4638 32.0244 35.3633 32.1751C35.288 32.3006 35.1624 32.4262 35.0619 32.5518C34.5847 33.0039 33.9317 33.2802 33.2787 33.2802Z" fill="#1C3D5C"/>
<path d="M15.6976 42.0697C15.3711 42.0697 15.0446 41.9946 14.7432 41.869C14.4418 41.7434 14.1656 41.5674 13.9144 41.3413C13.4623 40.8641 13.186 40.2111 13.186 39.5581C13.186 39.2316 13.2614 38.9051 13.387 38.6037C13.5125 38.2772 13.6884 38.0011 13.9144 37.7751C14.8437 36.8458 16.5516 36.8458 17.4809 37.7751C17.933 38.2523 18.2092 38.9051 18.2092 39.5581C18.2092 40.2111 17.933 40.8641 17.4809 41.3413C17.0037 41.7934 16.3506 42.0697 15.6976 42.0697Z" fill="#1C3D5C"/>
<path d="M24.4877 42.0697C23.8347 42.0697 23.1816 41.7934 22.7044 41.3413C22.2523 40.8641 21.9761 40.2111 21.9761 39.5581C21.9761 39.2316 22.0514 38.9051 22.177 38.6037C22.3026 38.2772 22.4784 38.0011 22.7044 37.7751C23.6337 36.8458 25.3416 36.8458 26.2709 37.7751C26.4969 38.0011 26.6728 38.2772 26.7983 38.6037C26.9239 38.9051 26.9993 39.2316 26.9993 39.5581C26.9993 40.2111 26.723 40.8641 26.2709 41.3413C25.7937 41.7934 25.1407 42.0697 24.4877 42.0697Z" fill="#1C3D5C"/>
<path d="M33.2787 42.0645C32.6257 42.0645 31.9727 41.7882 31.4955 41.3361C31.2694 41.1101 31.0936 40.8338 30.968 40.5073C30.8424 40.2059 30.7671 39.8794 30.7671 39.5529C30.7671 39.2264 30.8424 38.8999 30.968 38.5985C31.0936 38.272 31.2694 37.9957 31.4955 37.7696C32.0731 37.192 32.9522 36.9157 33.7559 37.0915C33.9317 37.1166 34.0824 37.1669 34.2331 37.2422C34.3838 37.2924 34.5345 37.3678 34.6852 37.4682C34.8108 37.5436 34.9363 37.6692 35.0619 37.7696C35.514 38.2468 35.7903 38.8999 35.7903 39.5529C35.7903 40.2059 35.514 40.8589 35.0619 41.3361C34.5847 41.7882 33.9317 42.0645 33.2787 42.0645Z" fill="#1C3D5C"/>
<path d="M45.8367 21.574H3.13956C2.1098 21.574 1.25586 20.7201 1.25586 19.6903C1.25586 18.6606 2.1098 17.8066 3.13956 17.8066H45.8367C46.8665 17.8066 47.7204 18.6606 47.7204 19.6903C47.7204 20.7201 46.8665 21.574 45.8367 21.574Z" fill="#1C3D5C"/>
<path d="M34.5345 53.9995H14.4417C5.27435 53.9995 0 48.7252 0 39.5578V18.2093C0 9.04193 5.27435 3.76758 14.4417 3.76758H34.5345C43.7018 3.76758 48.9761 9.04193 48.9761 18.2093V39.5578C48.9761 48.7252 43.7018 53.9995 34.5345 53.9995ZM14.4417 7.53497C7.25852 7.53497 3.7674 11.0261 3.7674 18.2093V39.5578C3.7674 46.741 7.25852 50.2321 14.4417 50.2321H34.5345C41.7176 50.2321 45.2087 46.741 45.2087 39.5578V18.2093C45.2087 11.0261 41.7176 7.53497 34.5345 7.53497H14.4417Z" fill="#1C3D5C"/>
</svg>
