<svg width="55" height="56" viewBox="0 0 55 56" fill="none" xmlns="http://www.w3.org/2000/svg">
<path d="M36.1914 55.1113H35.8426C23.9296 55.1113 18.1877 50.4158 17.195 39.898C17.0876 38.7979 17.8926 37.8052 19.0195 37.6978C20.0927 37.5905 21.1123 38.4223 21.2196 39.5224C21.9977 47.9473 25.9688 51.0866 35.8695 51.0866H36.2183C47.1386 51.0866 51.0022 47.2229 51.0022 36.3026V18.8086C51.0022 7.88836 47.1386 4.02468 36.2183 4.02468H35.8695C25.9151 4.02468 21.9441 7.21758 21.2196 15.8036C21.0855 16.9036 20.1464 17.7354 19.0195 17.6281C17.8926 17.5476 17.0876 16.5548 17.1681 15.4548C18.0804 4.77595 23.8491 0 35.8426 0H36.1914C49.3655 0 55.0001 5.63454 55.0001 18.8086V36.3026C55.0001 49.4767 49.3655 55.1113 36.1914 55.1113Z" fill="white"/>
<path d="M35.5437 29.5657H5.0099C3.90982 29.5657 2.99756 28.6534 2.99756 27.5534C2.99756 26.4533 3.90982 25.541 5.0099 25.541H35.5437C36.6437 25.541 37.556 26.4533 37.556 27.5534C37.556 28.6534 36.6437 29.5657 35.5437 29.5657Z" fill="white"/>
<path d="M10.9941 38.5554C10.4843 38.5554 9.97449 38.3676 9.57202 37.9651L0.583578 28.9767C-0.194526 28.1986 -0.194526 26.9107 0.583578 26.1326L9.57202 17.1441C10.3501 16.366 11.638 16.366 12.4161 17.1441C13.1942 17.9222 13.1942 19.2101 12.4161 19.9882L4.84973 27.5546L12.4161 35.121C13.1942 35.8991 13.1942 37.187 12.4161 37.9651C12.0405 38.3676 11.5039 38.5554 10.9941 38.5554Z" fill="white"/>
</svg>
