<svg width="143" height="31" viewBox="0 0 143 31" fill="none" xmlns="http://www.w3.org/2000/svg">
<g clip-path="url(#clip0_1080_48)">
<path d="M0.923295 9.38707V6.09091H16.4531V9.38707H10.6641V25H6.71236V9.38707H0.923295ZM22.87 16.8011V25H18.9368V6.09091H22.7592V13.3203H22.9254C23.2455 12.4832 23.7625 11.8277 24.4766 11.3537C25.1906 10.8736 26.0862 10.6335 27.1634 10.6335C28.1482 10.6335 29.0069 10.849 29.7393 11.2798C30.478 11.7045 31.0504 12.317 31.4567 13.1172C31.8691 13.9112 32.0722 14.8622 32.0661 15.9702V25H28.1328V16.6719C28.139 15.7978 27.9174 15.1177 27.468 14.6314C27.0249 14.1451 26.4032 13.902 25.603 13.902C25.0675 13.902 24.5935 14.0159 24.1811 14.2436C23.7749 14.4714 23.4548 14.8037 23.2209 15.2408C22.9931 15.6716 22.8762 16.1918 22.87 16.8011ZM41.6245 25.277C40.1657 25.277 38.91 24.9815 37.8574 24.3906C36.811 23.7936 36.0047 22.9503 35.4384 21.8608C34.8721 20.7652 34.589 19.4695 34.589 17.9737C34.589 16.5149 34.8721 15.2346 35.4384 14.1328C36.0047 13.031 36.8018 12.1723 37.8297 11.5568C38.8638 10.9413 40.0764 10.6335 41.4675 10.6335C42.4031 10.6335 43.2741 10.7843 44.0804 11.0859C44.8929 11.3814 45.6008 11.8277 46.204 12.4247C46.8134 13.0218 47.2873 13.7727 47.6259 14.6776C47.9644 15.5762 48.1337 16.6288 48.1337 17.8352V18.9155H36.1586V16.478H44.4313C44.4313 15.9117 44.3082 15.41 44.062 14.973C43.8158 14.536 43.4741 14.1944 43.0371 13.9482C42.6062 13.6958 42.1046 13.5696 41.5321 13.5696C40.9351 13.5696 40.4057 13.7081 39.9441 13.9851C39.4886 14.2559 39.1316 14.6222 38.873 15.0838C38.6145 15.5393 38.4822 16.0471 38.476 16.6072V18.9247C38.476 19.6264 38.6053 20.2327 38.8638 20.7436C39.1285 21.2545 39.5009 21.6484 39.981 21.9254C40.4611 22.2024 41.0305 22.3409 41.6891 22.3409C42.1261 22.3409 42.5262 22.2794 42.8894 22.1562C43.2525 22.0331 43.5634 21.8485 43.8219 21.6023C44.0804 21.3561 44.2774 21.0545 44.4128 20.6974L48.0506 20.9375C47.8659 21.8116 47.4874 22.5748 46.915 23.2273C46.3487 23.8736 45.6162 24.3783 44.7175 24.7415C43.825 25.0985 42.794 25.277 41.6245 25.277ZM63.3127 12.2031C63.1834 11.7538 63.0018 11.3568 62.7679 11.0121C62.534 10.6612 62.2478 10.3658 61.9093 10.1257C61.5769 9.8795 61.1953 9.69176 60.7644 9.5625C60.3397 9.43324 59.8688 9.36861 59.3517 9.36861C58.3854 9.36861 57.5359 9.60866 56.8034 10.0888C56.0771 10.5689 55.5108 11.2675 55.1046 12.1847C54.6983 13.0956 54.4952 14.2098 54.4952 15.527C54.4952 16.8442 54.6953 17.9645 55.0953 18.8878C55.4954 19.8111 56.0617 20.5159 56.7942 21.0021C57.5267 21.4822 58.3915 21.7223 59.3887 21.7223C60.2935 21.7223 61.066 21.5623 61.7061 21.2422C62.3525 20.916 62.8449 20.4574 63.1834 19.8665C63.5281 19.2756 63.7005 18.5769 63.7005 17.7706L64.513 17.8906H59.638V14.8807H67.5506V17.2628C67.5506 18.9247 67.1998 20.3527 66.498 21.5469C65.7963 22.7348 64.83 23.652 63.5989 24.2983C62.3678 24.9384 60.9583 25.2585 59.3702 25.2585C57.5975 25.2585 56.0402 24.8677 54.6983 24.0859C53.3565 23.2981 52.3101 22.1809 51.5591 20.7344C50.8143 19.2817 50.4419 17.5582 50.4419 15.5639C50.4419 14.0312 50.6635 12.6648 51.1067 11.4645C51.556 10.258 52.1839 9.23627 52.9902 8.39915C53.7966 7.56203 54.7353 6.92495 55.8063 6.48793C56.8773 6.0509 58.0376 5.83239 59.2871 5.83239C60.3581 5.83239 61.3553 5.98935 62.2786 6.30327C63.2019 6.61103 64.0205 7.04806 64.7346 7.61435C65.4547 8.18063 66.0426 8.85464 66.498 9.63636C66.9535 10.4119 67.2459 11.2675 67.3752 12.2031H63.3127ZM74.5238 25.2678C73.619 25.2678 72.8126 25.1108 72.1048 24.7969C71.3969 24.4768 70.8368 24.0059 70.4244 23.3842C70.0181 22.7564 69.815 21.9747 69.815 21.0391C69.815 20.2512 69.9596 19.5895 70.2489 19.054C70.5382 18.5185 70.9322 18.0876 71.4308 17.7614C71.9293 17.4351 72.4956 17.1889 73.1296 17.0227C73.7698 16.8565 74.4407 16.7396 75.1424 16.6719C75.9672 16.5857 76.632 16.5057 77.1367 16.4318C77.6415 16.3518 78.0077 16.2348 78.2354 16.081C78.4632 15.9271 78.5771 15.6993 78.5771 15.3977V15.3423C78.5771 14.7576 78.3924 14.3052 78.0231 13.9851C77.6599 13.665 77.1429 13.505 76.4719 13.505C75.7641 13.505 75.2009 13.6619 74.7823 13.9759C74.3638 14.2836 74.0868 14.6714 73.9513 15.1392L70.3136 14.8438C70.4982 13.982 70.8614 13.2372 71.4031 12.6094C71.9447 11.9754 72.6433 11.4891 73.4989 11.1506C74.3607 10.8059 75.3578 10.6335 76.4904 10.6335C77.2783 10.6335 78.0323 10.7259 78.7525 10.9105C79.4788 11.0952 80.122 11.3814 80.6822 11.7692C81.2485 12.157 81.6947 12.6555 82.021 13.2649C82.3472 13.8681 82.5103 14.5914 82.5103 15.4347V25H78.7802V23.0334H78.6694C78.4416 23.4766 78.137 23.8674 77.7553 24.206C77.3737 24.5384 76.9151 24.8 76.3796 24.9908C75.8441 25.1754 75.2255 25.2678 74.5238 25.2678ZM75.6502 22.5533C76.2288 22.5533 76.7397 22.4394 77.1829 22.2116C77.6261 21.9777 77.9738 21.6638 78.2262 21.2699C78.4786 20.8759 78.6048 20.4297 78.6048 19.9311V18.4261C78.4817 18.5062 78.3124 18.58 78.0969 18.6477C77.8877 18.7093 77.6507 18.7678 77.386 18.8232C77.1213 18.8724 76.8567 18.9186 76.592 18.9616C76.3273 18.9986 76.0872 19.0324 75.8718 19.0632C75.4102 19.1309 75.007 19.2386 74.6623 19.3864C74.3176 19.5341 74.0498 19.7341 73.859 19.9865C73.6682 20.2327 73.5728 20.5405 73.5728 20.9098C73.5728 21.4453 73.7667 21.8546 74.1545 22.1378C74.5484 22.4148 75.047 22.5533 75.6502 22.5533ZM85.5618 25V10.8182H89.3104V13.3203H89.4766C89.772 12.4893 90.2644 11.8338 90.9538 11.3537C91.6432 10.8736 92.468 10.6335 93.4283 10.6335C94.4008 10.6335 95.2287 10.8767 95.9119 11.3629C96.5952 11.843 97.0507 12.4955 97.2784 13.3203H97.4261C97.7154 12.5078 98.2386 11.8584 98.9957 11.3722C99.759 10.8797 100.661 10.6335 101.701 10.6335C103.024 10.6335 104.098 11.0552 104.923 11.8984C105.754 12.7356 106.17 13.9235 106.17 15.4624V25H102.246V16.2379C102.246 15.45 102.036 14.8591 101.618 14.4652C101.199 14.0713 100.676 13.8743 100.048 13.8743C99.3343 13.8743 98.7772 14.102 98.3771 14.5575C97.977 15.0069 97.777 15.6009 97.777 16.3395V25H93.9638V16.1548C93.9638 15.4593 93.7637 14.9053 93.3636 14.4929C92.9697 14.0805 92.4496 13.8743 91.8033 13.8743C91.3662 13.8743 90.9723 13.9851 90.6214 14.2067C90.2768 14.4221 90.0028 14.7268 89.7997 15.1207C89.5966 15.5085 89.495 15.964 89.495 16.4872V25H85.5618ZM115.74 25.277C114.281 25.277 113.025 24.9815 111.973 24.3906C110.926 23.7936 110.12 22.9503 109.554 21.8608C108.987 20.7652 108.704 19.4695 108.704 17.9737C108.704 16.5149 108.987 15.2346 109.554 14.1328C110.12 13.031 110.917 12.1723 111.945 11.5568C112.979 10.9413 114.192 10.6335 115.583 10.6335C116.518 10.6335 117.389 10.7843 118.196 11.0859C119.008 11.3814 119.716 11.8277 120.319 12.4247C120.929 13.0218 121.403 13.7727 121.741 14.6776C122.08 15.5762 122.249 16.6288 122.249 17.8352V18.9155H110.274V16.478H118.547C118.547 15.9117 118.423 15.41 118.177 14.973C117.931 14.536 117.589 14.1944 117.152 13.9482C116.721 13.6958 116.22 13.5696 115.647 13.5696C115.05 13.5696 114.521 13.7081 114.059 13.9851C113.604 14.2559 113.247 14.6222 112.988 15.0838C112.73 15.5393 112.597 16.0471 112.591 16.6072V18.9247C112.591 19.6264 112.721 20.2327 112.979 20.7436C113.244 21.2545 113.616 21.6484 114.096 21.9254C114.576 22.2024 115.146 22.3409 115.804 22.3409C116.241 22.3409 116.641 22.2794 117.005 22.1562C117.368 22.0331 117.679 21.8485 117.937 21.6023C118.196 21.3561 118.393 21.0545 118.528 20.6974L122.166 20.9375C121.981 21.8116 121.603 22.5748 121.03 23.2273C120.464 23.8736 119.731 24.3783 118.833 24.7415C117.94 25.0985 116.909 25.277 115.74 25.277ZM141.574 12.7109H137.529C137.456 12.1877 137.305 11.723 137.077 11.3168C136.849 10.9044 136.557 10.5535 136.2 10.2642C135.843 9.9749 135.431 9.75331 134.963 9.59943C134.501 9.44555 133.999 9.36861 133.458 9.36861C132.479 9.36861 131.627 9.61174 130.9 10.098C130.174 10.5781 129.611 11.2798 129.211 12.2031C128.81 13.1203 128.61 14.2344 128.61 15.5455C128.61 16.8935 128.81 18.026 129.211 18.9432C129.617 19.8603 130.183 20.5528 130.909 21.0206C131.636 21.4884 132.476 21.7223 133.43 21.7223C133.966 21.7223 134.461 21.6515 134.917 21.5099C135.378 21.3684 135.788 21.1622 136.145 20.8913C136.502 20.6143 136.797 20.2789 137.031 19.8849C137.271 19.491 137.437 19.0417 137.529 18.5369L141.574 18.5554C141.469 19.4233 141.207 20.2604 140.789 21.0668C140.376 21.867 139.819 22.584 139.118 23.218C138.422 23.8459 137.591 24.3445 136.625 24.7138C135.664 25.0769 134.578 25.2585 133.365 25.2585C131.679 25.2585 130.171 24.8769 128.841 24.1136C127.518 23.3504 126.471 22.2455 125.702 20.799C124.939 19.3525 124.557 17.6013 124.557 15.5455C124.557 13.4834 124.945 11.7292 125.721 10.2827C126.496 8.83617 127.549 7.73437 128.878 6.97727C130.208 6.21401 131.703 5.83239 133.365 5.83239C134.461 5.83239 135.477 5.98627 136.412 6.29403C137.354 6.6018 138.188 7.05114 138.914 7.64204C139.641 8.2268 140.232 8.94389 140.687 9.79332C141.149 10.6428 141.444 11.6153 141.574 12.7109Z" fill="white"/>
</g>
<defs>
<clipPath id="clip0_1080_48">
<rect width="143" height="31" fill="white"/>
</clipPath>
</defs>
</svg>
