<svg width="196" height="178" viewBox="0 0 196 178" fill="none" xmlns="http://www.w3.org/2000/svg">
<path d="M8 152V62C8 52.0589 16.0589 44 26 44H30.5C36.1656 44 41.5006 41.3325 44.9 36.8L64.88 10.16C65.8998 8.80028 67.5004 8 69.2 8H126.8C128.5 8 130.1 8.80028 131.12 10.16L151.1 36.8C154.499 41.3325 159.835 44 165.5 44H170C179.941 44 188 52.0589 188 62V152C188 161.941 179.941 170 170 170H26C16.0589 170 8 161.941 8 152Z" fill="black" stroke="black" stroke-width="15.3227" stroke-linecap="round" stroke-linejoin="round"/>
<path d="M98 134C117.882 134 134 117.882 134 98C134 78.1181 117.882 62 98 62C78.1177 62 62 78.1181 62 98C62 117.882 78.1177 134 98 134Z" fill="black" stroke="white" stroke-width="15.3227" stroke-linecap="round" stroke-linejoin="round"/>
</svg>
