<svg width="75" height="75" viewBox="0 0 75 75" fill="none" xmlns="http://www.w3.org/2000/svg">
<path d="M27.2108 72.1736H47.9628C65.2562 72.1736 72.1736 65.2562 72.1736 47.9628V27.2108C72.1736 9.91736 65.2562 3 47.9628 3H27.2108C9.91736 3 3 9.91736 3 27.2108V47.9628C3 65.2562 9.91736 72.1736 27.2108 72.1736Z" fill="white" stroke="black" stroke-width="5.18802" stroke-linecap="round" stroke-linejoin="round"/>
<path d="M49.6924 29.8038C52.5576 29.8038 54.8804 27.481 54.8804 24.6158C54.8804 21.7505 52.5576 19.4277 49.6924 19.4277C46.8272 19.4277 44.5044 21.7505 44.5044 24.6158C44.5044 27.481 46.8272 29.8038 49.6924 29.8038Z" fill="white" stroke="black" stroke-width="5.18802" stroke-miterlimit="10" stroke-linecap="round" stroke-linejoin="round"/>
<path d="M25.4815 29.8038C28.3467 29.8038 30.6695 27.481 30.6695 24.6158C30.6695 21.7505 28.3467 19.4277 25.4815 19.4277C22.6162 19.4277 20.2935 21.7505 20.2935 24.6158C20.2935 27.481 22.6162 29.8038 25.4815 29.8038Z" fill="white" stroke="black" stroke-width="5.18802" stroke-miterlimit="10" stroke-linecap="round" stroke-linejoin="round"/>
<path d="M25.1358 42.084H50.0383C51.7676 42.084 53.1511 43.4675 53.1511 45.1968C53.1511 53.8089 46.1991 60.7609 37.587 60.7609C28.9749 60.7609 22.0229 53.8089 22.0229 45.1968C22.0229 43.4675 23.4064 42.084 25.1358 42.084Z" fill="white" stroke="black" stroke-width="5.18802" stroke-miterlimit="10" stroke-linecap="round" stroke-linejoin="round"/>
</svg>
