<svg width="75" height="67" viewBox="0 0 75 67" fill="none" xmlns="http://www.w3.org/2000/svg">
<path d="M72.1736 28.9393V46.2327C72.1736 58.338 65.2562 63.5261 54.8802 63.5261H20.2934C9.91736 63.5261 3 58.338 3 46.2327V22.0219C3 9.91653 9.91736 4.72852 20.2934 4.72852H44.5042" fill="white"/>
<path d="M72.1736 28.9393V46.2327C72.1736 58.338 65.2562 63.5261 54.8802 63.5261H20.2934C9.91736 63.5261 3 58.338 3 46.2327V22.0219C3 9.91653 9.91736 4.72852 20.2934 4.72852H44.5042" stroke="black" stroke-width="5.18802" stroke-miterlimit="10" stroke-linecap="round" stroke-linejoin="round"/>
<path d="M20.2935 23.752L31.1191 32.3987C34.6816 35.2348 40.5267 35.2348 44.0892 32.3987L48.1704 29.1475" fill="white"/>
<path d="M20.2935 23.752L31.1191 32.3987C34.6816 35.2348 40.5267 35.2348 44.0892 32.3987L48.1704 29.1475" stroke="black" stroke-width="5.18802" stroke-miterlimit="10" stroke-linecap="round" stroke-linejoin="round"/>
<path d="M63.5271 20.2934C68.3025 20.2934 72.1738 16.4221 72.1738 11.6467C72.1738 6.87127 68.3025 3 63.5271 3C58.7517 3 54.8804 6.87127 54.8804 11.6467C54.8804 16.4221 58.7517 20.2934 63.5271 20.2934Z" fill="white" stroke="black" stroke-width="5.18802" stroke-miterlimit="10" stroke-linecap="round" stroke-linejoin="round"/>
</svg>
