<svg width="59" height="59" viewBox="0 0 59 59" fill="none" xmlns="http://www.w3.org/2000/svg">
<path d="M29.5 2C14.3122 2 2 14.3122 2 29.5C2 44.6877 14.3122 57 29.5 57C44.6877 57 57 44.6877 57 29.5C57 14.3122 44.6877 2 29.5 2Z" stroke="white" stroke-width="3.5" stroke-linecap="round" stroke-linejoin="round"/>
<path d="M8.24512 46.9507C8.24512 46.9507 14.3749 39.125 29.4999 39.125C44.6249 39.125 50.7549 46.9507 50.7549 46.9507" stroke="white" stroke-width="3.5" stroke-linecap="round" stroke-linejoin="round"/>
<path d="M29.5 29.5C34.0565 29.5 37.75 25.8065 37.75 21.25C37.75 16.6937 34.0565 13 29.5 13C24.9435 13 21.25 16.6937 21.25 21.25C21.25 25.8065 24.9435 29.5 29.5 29.5Z" stroke="white" stroke-width="3.5" stroke-linecap="round" stroke-linejoin="round"/>
</svg>
